<svg width="32" height="32" viewBox="0 0 32 32" fill="none" xmlns="http://www.w3.org/2000/svg">
<path d="M28 10.6667C27.7307 10.6667 21.5333 10.7053 16 13.344C10.4667 10.7053 4.26933 10.6667 4 10.6667C3.64638 10.6667 3.30724 10.8071 3.05719 11.0572C2.80714 11.3072 2.66667 11.6464 2.66667 12V25.1773C2.66667 25.3562 2.70267 25.5333 2.77254 25.698C2.8424 25.8627 2.9447 26.0117 3.07333 26.136C3.33333 26.3867 3.71333 26.5427 4.04533 26.5093L4.21467 26.508C5.12533 26.508 9.94267 26.6387 15.436 29.208C15.4573 29.2187 15.4813 29.2147 15.5027 29.2227C15.6613 29.288 15.828 29.3333 16 29.3333C16.172 29.3333 16.3387 29.288 16.4987 29.2227C16.52 29.2147 16.544 29.2187 16.5653 29.208C22.0587 26.6373 26.876 26.508 27.7867 26.508L27.956 26.5093C28.2733 26.5427 28.6667 26.3867 28.928 26.136C29.1867 25.884 29.3333 25.5373 29.3333 25.1773V12C29.3333 11.6464 29.1929 11.3072 28.9428 11.0572C28.6928 10.8071 28.3536 10.6667 28 10.6667ZM5.33333 13.3987C7.31333 13.5467 11.1747 14.0387 14.6667 15.6547V25.9773C10.6667 24.4107 7.21333 23.9853 5.33333 23.876V13.3987ZM26.6667 23.876C24.7867 23.9853 21.3333 24.4107 17.3333 25.9773V15.6547C20.8253 14.0387 24.6867 13.5467 26.6667 13.3987V23.876Z" fill="black"/>
<path d="M16 10.6667C18.2091 10.6667 20 8.8758 20 6.66666C20 4.45753 18.2091 2.66666 16 2.66666C13.7909 2.66666 12 4.45753 12 6.66666C12 8.8758 13.7909 10.6667 16 10.6667Z" fill="black"/>
</svg>
