<svg width="40" height="40" viewBox="0 0 40 40" fill="none" xmlns="http://www.w3.org/2000/svg">
<path d="M20 4.72222C16.503 4.71822 13.0779 5.71504 10.1292 7.59497C7.18056 9.4749 4.83144 12.1594 3.35934 15.3314C1.88723 18.5035 1.35363 22.0305 1.82155 25.4961C2.28947 28.9616 3.73937 32.2209 6 34.8889L6.33333 35.2778H33.6667L34 34.8889C36.2606 32.2209 37.7105 28.9616 38.1785 25.4961C38.6464 22.0305 38.1128 18.5035 36.6407 15.3314C35.1686 12.1594 32.8194 9.4749 29.8708 7.59497C26.9221 5.71504 23.497 4.71822 20 4.72222ZM29.5556 15.2556L22.9778 21.7111C23.314 22.4219 23.3881 23.2286 23.1871 23.9887C22.986 24.7488 22.5228 25.4134 21.8791 25.8651C21.2355 26.3167 20.453 26.5262 19.6698 26.4567C18.8866 26.3872 18.1532 26.043 17.5992 25.4851C17.0452 24.9272 16.7063 24.1914 16.6423 23.4077C16.5783 22.6241 16.7934 21.843 17.2495 21.2026C17.7057 20.5622 18.3735 20.1036 19.135 19.9079C19.8966 19.7123 20.7027 19.7921 21.4111 20.1333L27.9778 13.6778L29.5556 15.2556ZM4 22.1111H7.77778V24.3333H3.95556C3.95556 23.9 3.9 23.4778 3.9 23.0333C3.9 22.5889 3.92222 22.4222 3.94445 22.1111H4ZM9.42222 11L12.1556 13.7333L10.5222 15.2667L7.77778 12.5444C8.27036 11.9825 8.80126 11.4553 9.36667 10.9667L9.42222 11ZM21.1111 10.8778H18.8889V6.98889H20C20.4111 6.98889 20.7778 6.98889 21.1111 7.04444V10.8778ZM36.1 23.0444C36.1 23.4778 36.1 23.9222 36.0444 24.3444H32.1333V22.1222H36.0556C36.0778 22.4222 36.1 22.7333 36.1 23.0444Z" fill="black"/>
</svg>
