<svg width="32" height="32" viewBox="0 0 32 32" fill="none" xmlns="http://www.w3.org/2000/svg">
<path d="M13.56 6.66667C13.7592 6.66599 13.956 6.70995 14.136 6.79533C14.316 6.8807 14.4745 7.00531 14.6 7.16L21.04 15.16C21.2361 15.3986 21.3433 15.6978 21.3433 16.0067C21.3433 16.3155 21.2361 16.6148 21.04 16.8533L14.3733 24.8533C14.147 25.1256 13.8218 25.2969 13.4692 25.3294C13.1167 25.3619 12.7656 25.253 12.4933 25.0267C12.221 24.8004 12.0498 24.4751 12.0173 24.1226C11.9848 23.77 12.0937 23.419 12.32 23.1467L18.28 16L12.52 8.85334C12.357 8.65762 12.2534 8.4193 12.2216 8.16657C12.1897 7.91384 12.2309 7.65727 12.3403 7.42724C12.4498 7.1972 12.6228 7.00332 12.8389 6.86853C13.0551 6.73374 13.3053 6.66369 13.56 6.66667Z" fill="#AFAFAF"/>
</svg>
