<svg width="32" height="32" viewBox="0 0 32 32" fill="none" xmlns="http://www.w3.org/2000/svg">
<path d="M18.44 25.3333C18.2408 25.334 18.044 25.29 17.864 25.2047C17.684 25.1193 17.5255 24.9947 17.4 24.84L10.96 16.84C10.7639 16.6014 10.6567 16.3022 10.6567 15.9933C10.6567 15.6845 10.7639 15.3852 10.96 15.1467L17.6267 7.14666C17.853 6.87437 18.1782 6.70314 18.5308 6.67064C18.8833 6.63813 19.2344 6.74701 19.5067 6.97333C19.779 7.19965 19.9502 7.52486 19.9827 7.87743C20.0152 8.23 19.9063 8.58104 19.68 8.85333L13.72 16L19.48 23.1467C19.643 23.3424 19.7466 23.5807 19.7784 23.8334C19.8103 24.0862 19.7691 24.3427 19.6597 24.5728C19.5502 24.8028 19.3772 24.9967 19.1611 25.1315C18.9449 25.2663 18.6947 25.3363 18.44 25.3333Z" fill="#AFAFAF"/>
</svg>
