<svg width="32" height="32" viewBox="0 0 32 32" fill="none" xmlns="http://www.w3.org/2000/svg">
<path d="M28.9418 11.2451C28.9323 11.0972 28.8669 10.9584 28.7588 10.8569C28.6508 10.7554 28.5082 10.6988 28.36 10.6986H24.1635V3.79424C24.1635 3.4704 23.9015 3.20864 23.5779 3.20864H8.42209C8.09857 3.20864 7.83649 3.4704 7.83649 3.79424V10.6986H3.64065H3.64001C3.32993 10.6986 3.07873 10.9402 3.05825 11.2451H3.05441V23.0112C3.0545 23.1665 3.11623 23.3153 3.22604 23.4251C3.33586 23.5348 3.48476 23.5965 3.64001 23.5965H7.83649V18.696H24.1632V23.5965H28.3597C28.5149 23.5965 28.6638 23.5348 28.7737 23.4251C28.8835 23.3153 28.9452 23.1665 28.9453 23.0112V11.2451H28.9418ZM22.5677 13.3219H9.43233V5.39008C9.43233 5.06624 9.69441 4.80448 10.0179 4.80448H21.9818C22.3053 4.80448 22.5674 5.06624 22.5674 5.39008V13.3219H22.5677Z" fill="black"/>
<path d="M9.47263 28.2058C9.47263 28.5296 9.73471 28.7914 10.0582 28.7914H21.9417C22.2653 28.7914 22.5273 28.5296 22.5273 28.2058V20.321H9.47263V28.2058Z" fill="black"/>
</svg>
