<svg width="32" height="32" viewBox="0 0 32 32" fill="none" xmlns="http://www.w3.org/2000/svg">
<path d="M8.94496 14.8819C8.49923 13.9654 8.26758 12.9596 8.26752 11.9405C8.26752 11.3827 8.34816 10.8096 8.51328 10.1907C8.5872 9.91232 8.68 9.64608 8.78432 9.38784C8.384 9.16928 7.944 9.03488 7.472 9.03488C5.7216 9.03488 4.30464 10.6838 4.30464 12.7203C4.30464 14.145 5.00096 15.3779 6.01792 15.9914L1.72512 17.9894C1.4576 18.1152 1.28128 18.4173 1.28128 18.7549V22.143C1.28128 22.5971 1.5984 22.9651 1.98848 22.9651H4.52576V19.4099C4.52576 18.3741 5.1024 17.4349 5.99744 17.016L9.28128 15.4867C9.15845 15.2913 9.04619 15.0894 8.94496 14.8819Z" fill="black"/>
<path d="M19.2438 11.1363H30.1533V11.136L30.1552 11.1363C30.4666 11.1363 30.7187 10.8838 30.7187 10.5728V8.51488C30.7187 8.20352 30.4662 7.95136 30.1552 7.95136L30.1533 7.95168V7.95008H17.9626C18.4994 8.65643 18.8836 9.46662 19.0909 10.3293C19.1597 10.6138 19.2096 10.8797 19.2438 11.1363Z" fill="black"/>
<path d="M30.7187 21.2595C30.7187 20.9482 30.4662 20.696 30.1552 20.696L30.1533 20.6963V20.6947H23.0422V23.6032C23.0422 23.697 23.0371 23.7894 23.0278 23.8806H30.1533V23.8803L30.1552 23.8806C30.4666 23.8806 30.7187 23.6282 30.7187 23.3171V21.2595Z" fill="black"/>
<path d="M30.1552 14.3238L30.1533 14.3242V14.3226H18.8621C18.8112 14.4566 18.7574 14.5901 18.6976 14.7222C18.5829 14.9754 18.4521 15.2209 18.3059 15.4573L21.5981 17.0278C21.8451 17.1497 22.0699 17.3123 22.263 17.5088H30.1533V17.5085L30.1552 17.5088C30.4665 17.5088 30.7187 17.2563 30.7187 16.9453V14.8874C30.7187 14.576 30.4662 14.3238 30.1552 14.3238Z" fill="black"/>
<path d="M20.9034 18.4646L17.2071 16.7014L15.6439 15.9558C16.3267 15.5258 16.881 14.8621 17.2439 14.0624C17.5464 13.3959 17.703 12.6724 17.7031 11.9405C17.7031 11.5091 17.6349 11.0998 17.5392 10.7043C17.0743 8.78976 15.5789 7.37888 13.7837 7.37888C12.0224 7.37888 10.5498 8.7392 10.0563 10.5997C9.94241 11.0262 9.86369 11.4701 9.86369 11.9402C9.86369 12.7568 10.0544 13.5178 10.3786 14.1802C10.7533 14.9482 11.3085 15.5814 11.9843 15.9885L10.4874 16.6854L6.67105 18.4627C6.33921 18.6179 6.12161 18.992 6.12161 19.4096V23.6032C6.12161 24.1651 6.51329 24.6211 6.99681 24.6211H20.5703C21.0538 24.6211 21.4455 24.1654 21.4455 23.6032V19.4099C21.4461 18.9936 21.2317 18.6234 20.9034 18.4646Z" fill="black"/>
</svg>
