<svg width="32" height="32" viewBox="0 0 32 32" fill="none" xmlns="http://www.w3.org/2000/svg">
<path d="M4.48703 21.6637H27.5133C27.9356 21.6635 28.3405 21.4956 28.6391 21.197C28.9377 20.8983 29.1055 20.4933 29.1056 20.071V5.96096C29.1056 5.53865 28.9378 5.13363 28.6392 4.83502C28.3406 4.5364 27.9356 4.36864 27.5133 4.36864H4.48703C4.06473 4.36864 3.65971 4.5364 3.36109 4.83502C3.06248 5.13363 2.89471 5.53865 2.89471 5.96096V20.071C2.89467 20.2802 2.93583 20.4873 3.01583 20.6805C3.09583 20.8737 3.21312 21.0493 3.36098 21.1972C3.50885 21.3451 3.6844 21.4624 3.87761 21.5424C4.07082 21.6225 4.2779 21.6637 4.48703 21.6637ZM6.07935 7.55328H25.921V18.4787H6.07935V7.55328Z" fill="black"/>
<path d="M30.504 23.2595H1.496C1.30131 23.2595 1.11459 23.3369 0.976924 23.4745C0.839257 23.6122 0.761917 23.7989 0.761917 23.9936V25.7712C0.761917 25.9568 0.831677 26.1344 0.956797 26.2701L1.9968 27.3958C2.06568 27.4699 2.14907 27.529 2.24178 27.5695C2.33448 27.6099 2.43452 27.6309 2.53568 27.631H29.3885C29.5843 27.631 29.7718 27.5526 29.9104 27.4131L31.0256 26.287C31.1615 26.1496 31.2378 25.9642 31.2381 25.7709V23.9936C31.238 23.7989 31.1606 23.6123 31.023 23.4746C30.8853 23.337 30.6987 23.2596 30.504 23.2595ZM18.7741 25.8096C18.7741 25.8992 18.7149 25.9718 18.6413 25.9718H13.3587C13.2851 25.9718 13.2259 25.8992 13.2259 25.8096V25.0851C13.2259 24.9955 13.2851 24.9238 13.3587 24.9238H18.6413C18.7149 24.9238 18.7741 24.9955 18.7741 25.0851V25.8096Z" fill="black"/>
</svg>
