<svg width="32" height="32" viewBox="0 0 32 32" fill="none" xmlns="http://www.w3.org/2000/svg">
<path d="M28.9008 4.15776H3.09887C2.86166 4.15776 2.62678 4.20449 2.40763 4.29527C2.18849 4.38606 1.98938 4.51912 1.82166 4.68686C1.65395 4.85461 1.52092 5.05374 1.43017 5.27291C1.33943 5.49207 1.29274 5.72696 1.29279 5.96416V21.7056C1.29274 21.9428 1.33943 22.1777 1.43017 22.3969C1.52092 22.616 1.65395 22.8152 1.82166 22.9829C1.98938 23.1506 2.18849 23.2837 2.40763 23.3745C2.62678 23.4653 2.86166 23.512 3.09887 23.512H12.8137V26.2499H9.80511C9.51967 26.2499 9.28895 26.4806 9.28895 26.7658V27.3261C9.28895 27.6115 9.51967 27.8422 9.80511 27.8422H21.9334C22.2185 27.8422 22.4496 27.6115 22.4496 27.3261V26.7658C22.4496 26.4803 22.2185 26.2499 21.9334 26.2499H19.1859V23.512H28.9008C29.138 23.5121 29.373 23.4654 29.5922 23.3747C29.8114 23.2839 30.0105 23.1509 30.1783 22.9831C30.346 22.8153 30.4791 22.6162 30.5699 22.397C30.6606 22.1778 30.7073 21.9428 30.7072 21.7056V5.96416C30.7072 5.48507 30.5169 5.02561 30.1781 4.68684C29.8393 4.34808 29.3799 4.15776 28.9008 4.15776ZM4.50911 20.3226V7.34368H27.4909V20.3226H4.50911Z" fill="black"/>
</svg>
