<svg width="32" height="32" viewBox="0 0 32 32" fill="none" xmlns="http://www.w3.org/2000/svg">
<path d="M12.6667 20.6667L6.66666 26.6667L3.33333 23.3333L4.74666 21.92L6.66666 23.84L11.2533 19.2533L12.6667 20.6667ZM13.3333 6.66666V9.33333H28V6.66666H13.3333ZM13.3333 25.3333H28V22.6667H13.3333V25.3333ZM13.3333 17.3333H28V14.6667H13.3333V17.3333ZM11.2533 11.2533L6.66666 15.84L4.74666 13.92L3.33333 15.3333L6.66666 18.6667L12.6667 12.6667L11.2533 11.2533ZM11.2533 3.25333L6.66666 7.83999L4.74666 5.91999L3.33333 7.33333L6.66666 10.6667L12.6667 4.66666L11.2533 3.25333Z" fill="black"/>
</svg>
