<svg width="32" height="32" viewBox="0 0 32 32" fill="none" xmlns="http://www.w3.org/2000/svg">
<path d="M9.6 16C12.695 16 15.2 13.495 15.2 10.4C15.2 7.305 12.695 4.8 9.6 4.8C6.505 4.8 4 7.305 4 10.4C4 13.495 6.505 16 9.6 16ZM13.44 17.6H13.025C11.985 18.1 10.83 18.4 9.6 18.4C8.37 18.4 7.22 18.1 6.175 17.6H5.76C2.58 17.6 0 20.18 0 23.36V24.8C0 26.125 1.075 27.2 2.4 27.2H16.8C18.125 27.2 19.2 26.125 19.2 24.8V23.36C19.2 20.18 16.62 17.6 13.44 17.6ZM24 16C26.65 16 28.8 13.85 28.8 11.2C28.8 8.55 26.65 6.4 24 6.4C21.35 6.4 19.2 8.55 19.2 11.2C19.2 13.85 21.35 16 24 16ZM26.4 17.6H26.21C25.515 17.84 24.78 18 24 18C23.22 18 22.485 17.84 21.79 17.6H21.6C20.58 17.6 19.64 17.895 18.815 18.37C20.035 19.685 20.8 21.43 20.8 23.36V25.28C20.8 25.39 20.775 25.495 20.77 25.6H29.6C30.925 25.6 32 24.525 32 23.2C32 20.105 29.495 17.6 26.4 17.6Z" fill="black"/>
</svg>
