<svg width="32" height="32" viewBox="0 0 32 32" fill="none" xmlns="http://www.w3.org/2000/svg">
<g clip-path="url(#clip0)">
<path d="M21.9625 20.0375L16 26L10.0375 20.0375C5.56875 20.2313 2 23.8875 2 28.4V29C2 30.6563 3.34375 32 5 32H27C28.6562 32 30 30.6563 30 29V28.4C30 23.8875 26.4312 20.2313 21.9625 20.0375ZM2.85 4.9875L3.25 5.08125V8.73125C2.8125 8.99375 2.5 9.45 2.5 10C2.5 10.525 2.7875 10.9625 3.19375 11.2312L2.21875 15.125C2.1125 15.5562 2.35 16 2.69375 16H5.30625C5.65 16 5.8875 15.5562 5.78125 15.125L4.80625 11.2312C5.2125 10.9625 5.5 10.525 5.5 10C5.5 9.45 5.1875 8.99375 4.75 8.73125V5.44375L8.875 6.4375C8.3375 7.5125 8 8.7125 8 10C8 14.4187 11.5813 18 16 18C20.4188 18 24 14.4187 24 10C24 8.7125 23.6688 7.5125 23.125 6.4375L29.1437 4.9875C30.2812 4.7125 30.2812 3.29375 29.1437 3.01875L17.2437 0.143748C16.4312 -0.0500015 15.575 -0.0500015 14.7625 0.143748L2.85 3.0125C1.71875 3.2875 1.71875 4.7125 2.85 4.9875Z" fill="black"/>
</g>
<defs>
<clipPath id="clip0">
<rect width="32" height="32" fill="white"/>
</clipPath>
</defs>
</svg>
